<svg width="1440" height="1024" viewBox="0 0 1440 1024" preserveAspectRatio="none" fill="none" xmlns="http://www.w3.org/2000/svg">
<rect x="0.5" y="0.5" width="1439" height="1023" fill="#460E7D"/>
<ellipse cx="290.5" cy="980" rx="93.5" ry="58" fill="#C4C4C4"/>
<ellipse cx="1353" cy="699.5" rx="143" ry="132.5" fill="#C4C4C4"/>
<ellipse cx="1390" cy="773" rx="136" ry="105" fill="#C4C4C4"/>
<ellipse cx="1342" cy="512" rx="58" ry="42" fill="#C4C4C4"/>
<ellipse cx="1295" cy="531.5" rx="35" ry="19.5" fill="#C4C4C4"/>
<ellipse cx="1121" cy="757" rx="41" ry="29" fill="#C4C4C4"/>
<ellipse cx="1099" cy="774" rx="22" ry="12" fill="#C4C4C4"/>
<ellipse cx="1162" cy="747" rx="26" ry="19" fill="#C4C4C4"/>
<ellipse cx="46.9999" cy="17.9999" rx="77" ry="52" transform="rotate(14.4678 46.9999 17.9999)" fill="#C4C4C4"/>
<ellipse cx="10" cy="107" rx="37" ry="19" fill="#C4C4C4"/>
<ellipse cx="86.5" cy="125" rx="16.5" ry="13" fill="#C4C4C4"/>
<ellipse cx="7" cy="128" rx="17" ry="12" fill="#C4C4C4"/>
<ellipse cx="1001.78" cy="4.58609" rx="56" ry="35" transform="rotate(-12.8598 1001.78 4.58609)" fill="#C4C4C4"/>
<ellipse cx="104" cy="938" rx="202" ry="132" fill="#C4C4C4"/>
<ellipse cx="1100.48" cy="-0.357734" rx="106" ry="53" transform="rotate(-19.0136 1100.48 -0.357734)" fill="#C4C4C4"/>
<ellipse cx="1411.89" cy="41.5611" rx="154" ry="104" transform="rotate(-18.1888 1411.89 41.5611)" fill="#C4C4C4"/>
<ellipse cx="16" cy="823" rx="54" ry="43" fill="#C4C4C4"/>
<ellipse cx="246.5" cy="967.313" rx="93.5" ry="58" fill="white"/>
<ellipse cx="1337" cy="677.5" rx="143" ry="132.5" fill="white"/>
<ellipse cx="1390" cy="749" rx="136" ry="105" fill="white"/>
<ellipse cx="1298" cy="499.313" rx="58" ry="42" fill="white"/>
<ellipse cx="1251" cy="518.813" rx="35" ry="19.5" fill="white"/>
<ellipse cx="1099" cy="753" rx="41" ry="29" fill="white"/>
<ellipse cx="1074" cy="774" rx="22" ry="12" fill="white"/>
<ellipse cx="1126" cy="738" rx="26" ry="19" fill="white"/>
<ellipse cx="764" cy="5" rx="26" ry="19" fill="white"/>
<ellipse cx="32.5497" cy="6.58832" rx="77" ry="52" transform="rotate(14.4678 32.5497 6.58832)" fill="white"/>
<ellipse cx="-4" cy="96" rx="37" ry="19" fill="white"/>
<ellipse cx="76.5" cy="128" rx="16.5" ry="13" fill="white"/>
<ellipse cx="1223.5" cy="125" rx="16.5" ry="13" fill="white"/>
<ellipse cx="1032.5" cy="993" rx="13.5" ry="13" fill="white"/>
<ellipse cx="1005.39" cy="-7.41398" rx="56" ry="35" transform="rotate(-20.24 1005.39 -7.41398)" fill="white"/>
<ellipse cx="60" cy="925.313" rx="202" ry="132" fill="white"/>
<ellipse cx="1087.48" cy="-15.3577" rx="106" ry="53" transform="rotate(-19.0136 1087.48 -15.3577)" fill="white"/>
<ellipse cx="1425.16" cy="21.8589" rx="154" ry="89.2472" transform="rotate(-18.1888 1425.16 21.8589)" fill="white"/>
<ellipse cx="-28" cy="810.313" rx="54" ry="43" fill="white"/>
<ellipse cx="442.5" cy="866" rx="32.5" ry="23" fill="white"/>
<ellipse cx="474.5" cy="854" rx="16.5" ry="13" fill="white"/>
<ellipse cx="144" cy="144.5" rx="9" ry="6.5" fill="white"/>
<ellipse cx="1019" cy="986.5" rx="9" ry="6.5" fill="white"/>
<ellipse cx="961" cy="1005.5" rx="9" ry="6.5" fill="white"/>
<ellipse cx="890.5" cy="987" rx="5.5" ry="4" fill="white"/>
<ellipse cx="805" cy="1" rx="41" ry="29" fill="white"/>
<rect x="0.5" y="0.5" width="1439" height="1023" stroke="black"/>
<defs>
<clipPath id="clip0">
</clipPath>
</defs>
</svg>
