<?xml version="1.0" encoding="UTF-8" standalone="no"?>
<!DOCTYPE svg PUBLIC "-//W3C//DTD SVG 1.1//EN" "http://www.w3.org/Graphics/SVG/1.1/DTD/svg11.dtd">
<svg version="1.1" xmlns="http://www.w3.org/2000/svg" xmlns:xlink="http://www.w3.org/1999/xlink" preserveAspectRatio="xMidYMid meet" viewBox="0 0 640 640" width="100" height="100"><defs><path d="M495.3 309.38C495.3 392.17 426.69 459.38 342.19 459.38C257.68 459.38 189.07 392.17 189.07 309.38C189.07 226.59 257.68 159.38 342.19 159.38C426.69 159.38 495.3 226.59 495.3 309.38Z" id="e1JZc2CisO"></path><path d="M387.32 247.04C398.56 247.04 407.66 256.15 407.66 267.38C407.66 289.31 407.66 334.77 407.66 356.7C407.66 367.94 398.56 377.04 387.32 377.04C365.6 377.04 320.77 377.04 299.05 377.04C287.82 377.04 278.71 367.94 278.71 356.7C278.71 334.77 278.71 289.31 278.71 267.38C278.71 256.15 287.82 247.04 299.05 247.04C320.77 247.04 365.6 247.04 387.32 247.04Z" id="b4JCa65Ru"></path></defs><g><g><g><use xlink:href="#e1JZc2CisO" opacity="1" fill="#1e392a" fill-opacity="1"></use><g><use xlink:href="#e1JZc2CisO" opacity="1" fill-opacity="0" stroke="#f9798e" stroke-width="0" stroke-opacity="1"></use></g></g><g><use xlink:href="#b4JCa65Ru" opacity="1" fill="#ef5959" fill-opacity="1"></use></g></g></g></svg>